<svg width="168" height="30" viewBox="0 0 168 30" fill="none" xmlns="http://www.w3.org/2000/svg">
<path d="M0.210562 25.9995L16.8145 1.62945C16.9526 1.43425 17.1354 1.27507 17.3475 1.16522C17.5595 1.05537 17.7947 0.998047 18.0334 0.998047C18.2721 0.998047 18.5073 1.05537 18.7194 1.16522C18.9315 1.27507 19.1142 1.43425 19.2524 1.62945L35.8563 25.9995C35.9893 26.2159 36.062 26.4642 36.0666 26.7184C36.0712 26.9726 36.0077 27.2233 35.8826 27.4444C35.7575 27.6655 35.5754 27.8489 35.3555 27.9753C35.1355 28.1016 34.8858 28.1664 34.6323 28.1628H1.43454C1.18107 28.1664 0.931309 28.1016 0.711365 27.9753C0.49142 27.8489 0.309376 27.6655 0.184275 27.4444C0.0591737 27.2233 -0.00438887 26.9726 0.000235472 26.7184C0.00485982 26.4642 0.0775012 26.2159 0.210562 25.9995Z" fill="#FEB017"/>
<path d="M0.531866 26.3517L8.77864 17.8594C9.98258 16.6202 11.4218 15.6353 13.0113 14.9628C14.6008 14.2903 16.3085 13.9438 18.0337 13.9438C19.7589 13.9438 21.4666 14.2903 23.0561 14.9628C24.6456 15.6353 26.0848 16.6202 27.2887 17.8594L35.5455 26.3618C35.6827 26.5194 35.7715 26.7133 35.8014 26.9203C35.8313 27.1274 35.801 27.3386 35.7142 27.5288C35.6273 27.7189 35.4876 27.8799 35.3117 27.9924C35.1359 28.1049 34.9314 28.1641 34.7229 28.1629H1.35454C1.14409 28.1658 0.937342 28.1072 0.759547 27.9943C0.581752 27.8813 0.440607 27.7189 0.353355 27.5268C0.266103 27.3347 0.23652 27.1213 0.268221 26.9126C0.299922 26.7039 0.391534 26.509 0.531866 26.3517Z" fill="#FF7A00"/>
<path d="M0.973265 26.9353L3.44128 25.5769C7.90412 23.0979 12.922 21.7974 18.0236 21.7974C23.1252 21.7974 28.1431 23.0979 32.606 25.5769L35.084 26.9654C35.196 27.0383 35.283 27.1438 35.3333 27.2679C35.3836 27.3919 35.3947 27.5284 35.3652 27.6589C35.3357 27.7895 35.2669 27.9078 35.1682 27.9979C35.0694 28.0881 34.9455 28.1456 34.8131 28.1628H1.30434C1.1656 28.1524 1.0335 28.0991 0.926249 28.0102C0.819002 27.9213 0.741897 27.8013 0.705569 27.6666C0.669242 27.5319 0.675483 27.3892 0.72343 27.2582C0.771378 27.1272 0.85867 27.0144 0.973265 26.9353Z" fill="#F16000"/>
<path d="M49.9377 25.1493C48.9177 25.1809 47.9023 24.9996 46.9558 24.6168C46.0094 24.234 45.1526 23.6581 44.4399 22.9256C43.7236 22.2064 43.1612 21.3483 42.7869 20.4037C42.4125 19.4591 42.2342 18.4478 42.2628 17.4318C42.2394 16.415 42.422 15.404 42.7996 14.4601C43.1771 13.5161 43.7418 12.6589 44.4593 11.9402C45.1768 11.2215 46.0323 10.6563 46.974 10.2789C47.9157 9.90147 48.9239 9.71964 49.9377 9.74442C51.2281 9.73278 52.4997 10.0551 53.6297 10.6802C54.7272 11.2755 55.6428 12.159 56.2783 13.2359L53.7702 14.6848C53.406 14.0296 52.8631 13.492 52.2051 13.1353C51.284 12.6563 50.2375 12.4756 49.2098 12.6179C48.182 12.7603 47.2236 13.2188 46.4664 13.9302C46.0185 14.3932 45.6678 14.9417 45.4352 15.5432C45.2025 16.1447 45.0926 16.7869 45.112 17.4318C45.0881 18.0722 45.1921 18.711 45.4177 19.3106C45.6434 19.9102 45.9863 20.4585 46.4263 20.9233C46.8802 21.3769 47.4232 21.731 48.0207 21.9631C48.6183 22.1952 49.2574 22.3003 49.8976 22.2716C50.6945 22.2844 51.4816 22.0939 52.185 21.7182C52.839 21.3675 53.3762 20.8323 53.73 20.1787L56.2382 21.6377C55.6059 22.7112 54.6937 23.5913 53.5996 24.1833C52.4829 24.8178 51.2211 25.1506 49.9377 25.1493Z" fill="white"/>
<path d="M66.0105 14.2821H68.7293V24.8472H66.0105V23.6096C65.6006 24.1199 65.0759 24.5255 64.4795 24.7931C63.8831 25.0607 63.2319 25.1827 62.5793 25.149C61.8969 25.1535 61.2213 25.0113 60.5983 24.7318C59.9753 24.4524 59.4192 24.0423 58.9676 23.5291C58.4678 23.0005 58.0767 22.3783 57.8168 21.6981C57.5568 21.0178 57.4331 20.2929 57.4527 19.5647C57.4159 18.0974 57.9606 16.6753 58.9676 15.6103C59.4192 15.0971 59.9753 14.687 60.5983 14.4075C61.2213 14.1281 61.8969 13.9858 62.5793 13.9903C63.2319 13.9567 63.8831 14.0787 64.4795 14.3463C65.0759 14.6139 65.6006 15.0195 66.0105 15.5298V14.2821ZM60.9942 21.7179C61.5554 22.262 62.3054 22.5661 63.086 22.5661C63.8665 22.5661 64.6165 22.262 65.1778 21.7179C65.4539 21.4337 65.67 21.0965 65.8131 20.7265C65.9562 20.3565 66.0233 19.9613 66.0105 19.5647C66.0212 19.1713 65.953 18.7798 65.8099 18.4133C65.6669 18.0469 65.4519 17.713 65.1778 17.4315C64.6165 16.8875 63.8665 16.5833 63.086 16.5833C62.3054 16.5833 61.5554 16.8875 60.9942 17.4315C60.4479 18.0052 60.1488 18.7715 60.1615 19.5647C60.1435 20.3647 60.443 21.1392 60.9942 21.7179Z" fill="white"/>
<path d="M76.2135 25.1487C75.4696 25.1765 74.7281 25.0476 74.0369 24.7703C73.3457 24.493 72.7201 24.0735 72.2005 23.5388C71.6785 23.0204 71.2677 22.4004 70.9933 21.7169C70.719 21.0334 70.587 20.3009 70.6053 19.5644C70.5878 18.8294 70.7202 18.0986 70.9945 17.4169C71.2688 16.7351 71.6792 16.1168 72.2005 15.5999C72.7201 15.0653 73.3457 14.6458 74.0369 14.3685C74.7281 14.0912 75.4696 13.9623 76.2135 13.99C77.1997 13.9796 78.1704 14.2369 79.0226 14.7346C79.8411 15.2065 80.5065 15.9053 80.9389 16.747L78.6013 18.1154C78.3773 17.6851 78.0271 17.3339 77.598 17.1092C77.0515 16.7981 76.4195 16.6722 75.7959 16.7502C75.1723 16.8281 74.5904 17.1058 74.1368 17.5419C73.8683 17.8137 73.6585 18.1379 73.5205 18.4945C73.3824 18.8511 73.319 19.2324 73.3342 19.6147C73.3203 19.9952 73.3844 20.3746 73.5225 20.7294C73.6605 21.0841 73.8696 21.4068 74.1368 21.6774C74.4081 21.9478 74.7334 22.1576 75.0913 22.2929C75.4493 22.4281 75.8317 22.4859 76.2135 22.4622C76.7265 22.4741 77.2329 22.3454 77.6783 22.0899C78.1114 21.8708 78.4631 21.5181 78.6815 21.0837L81.0392 22.4421C80.5814 23.2787 79.9051 23.9744 79.0828 24.4545C78.2097 24.9498 77.2158 25.1903 76.2135 25.1487Z" fill="white"/>
<path d="M88.2519 13.9899C88.7816 13.9758 89.3084 14.0722 89.7989 14.2732C90.2894 14.4741 90.7329 14.7751 91.1012 15.1571C91.4988 15.5872 91.8066 16.0928 92.0065 16.644C92.2064 17.1952 92.2943 17.781 92.265 18.3668V24.8467H89.5562V18.6989C89.5761 18.4056 89.5356 18.1113 89.4372 17.8343C89.3388 17.5573 89.1847 17.3036 88.9843 17.089C88.7822 16.8983 88.5439 16.7502 88.2837 16.6534C88.0235 16.5566 87.7466 16.5131 87.4694 16.5255C87.1586 16.5116 86.8484 16.5625 86.5582 16.6751C86.2681 16.7877 86.0044 16.9595 85.7839 17.1795C85.3263 17.7259 85.0995 18.43 85.1519 19.1416V24.8467H82.403V10.0557H85.1218V15.469C85.4711 14.9716 85.9432 14.5738 86.492 14.3145C87.0407 14.0553 87.6471 13.9434 88.2519 13.9899Z" fill="white"/>
<path d="M96.8499 20.6915C97.0161 21.34 97.4153 21.904 97.9708 22.2754C98.5262 22.6468 99.1989 22.7994 99.8597 22.7039C100.31 22.7323 100.76 22.651 101.173 22.467C101.585 22.2831 101.947 22.0019 102.227 21.6474L104.414 22.9152C103.906 23.6561 103.217 24.2535 102.412 24.65C101.608 25.0465 100.715 25.2287 99.8195 25.1792C99.0495 25.2135 98.2806 25.0902 97.5597 24.8169C96.8387 24.5436 96.1808 24.1259 95.6259 23.5894C95.1012 23.0634 94.6905 22.4344 94.4195 21.7419C94.1484 21.0493 94.0229 20.3081 94.0508 19.5646C94.0233 18.8229 94.147 18.0834 94.4144 17.3913C94.6818 16.6993 95.0872 16.0692 95.6059 15.5398C96.1278 15.009 96.7541 14.5926 97.4449 14.3172C98.1357 14.0418 98.876 13.9134 99.6189 13.9399C100.334 13.9196 101.044 14.0527 101.704 14.3303C102.363 14.608 102.955 15.0238 103.441 15.5499C104.448 16.6192 104.992 18.0441 104.956 19.5143C104.952 19.8924 104.915 20.2695 104.846 20.6412L96.8499 20.6915ZM96.8499 18.5785H102.227C102.108 17.9341 101.749 17.3589 101.224 16.9686C100.744 16.6182 100.163 16.4345 99.5687 16.4454C98.9213 16.417 98.2839 16.6123 97.7629 16.9988C97.2704 17.397 96.933 17.9562 96.8098 18.5785H96.8499Z" fill="white"/>
<path d="M116.343 24.8467L112.882 18.9303H108.718V24.8467H107.244V10.0557H113.143C114.315 10.0583 115.439 10.5267 116.268 11.3583C117.098 12.1898 117.565 13.317 117.567 14.493C117.579 15.4622 117.26 16.4065 116.664 17.1695C116.099 17.9327 115.298 18.4879 114.387 18.7492L117.989 24.8467H116.343ZM108.718 11.4543V17.4915H113.143C113.534 17.4954 113.921 17.4178 114.28 17.2636C114.639 17.1095 114.963 16.8821 115.23 16.5959C115.508 16.3119 115.727 15.9753 115.876 15.6058C116.024 15.2362 116.097 14.8409 116.092 14.4427C116.097 14.0444 116.024 13.6491 115.876 13.2796C115.727 12.91 115.508 12.5735 115.23 12.2894C114.962 12.0046 114.638 11.7788 114.279 11.6263C113.92 11.4739 113.533 11.3981 113.143 11.404L108.718 11.4543Z" fill="white"/>
<path d="M124.219 14.0308C124.933 14.0054 125.644 14.1414 126.298 14.4288C126.953 14.7162 127.535 15.1476 128.001 15.6911C128.954 16.7721 129.47 18.1721 129.446 19.6152C129.457 19.8331 129.457 20.0514 129.446 20.2693H120.155C120.255 21.2636 120.742 22.1784 121.51 22.8149C122.317 23.4515 123.322 23.7828 124.349 23.7507C125.072 23.7715 125.788 23.6015 126.426 23.2577C126.977 22.9577 127.432 22.5078 127.74 21.9597L128.964 22.6741C128.502 23.4318 127.847 24.0532 127.068 24.4752C126.224 24.9195 125.282 25.1444 124.329 25.1292C123.589 25.1549 122.851 25.0289 122.161 24.759C121.471 24.4892 120.843 24.081 120.316 23.5595C119.797 23.04 119.391 22.4191 119.122 21.7354C118.852 21.0517 118.726 20.3197 118.751 19.585C118.731 18.8581 118.857 18.1345 119.12 17.4571C119.384 16.7796 119.78 16.162 120.286 15.6408C120.795 15.1153 121.408 14.701 122.085 14.424C122.761 14.1469 123.488 14.0131 124.219 14.0308ZM124.219 15.3892C123.23 15.361 122.268 15.708 121.524 16.361C120.78 17.014 120.309 17.9247 120.206 18.9109H128.061C127.979 17.9129 127.52 16.9842 126.777 16.3149C126.068 15.702 125.154 15.3819 124.219 15.4194V15.3892Z" fill="white"/>
<path d="M140.723 14.2825H142.108V24.8475H140.723V22.7848C140.289 23.5227 139.663 24.1286 138.912 24.5379C138.161 24.9472 137.313 25.1446 136.46 25.1091C135.744 25.1174 135.033 24.9789 134.373 24.702C133.712 24.4252 133.114 24.0159 132.617 23.4992C132.099 22.9864 131.692 22.3729 131.419 21.6964C131.147 21.0198 131.015 20.2945 131.032 19.565C131.014 18.8369 131.146 18.113 131.419 17.438C131.691 16.7631 132.099 16.1514 132.617 15.6408C133.113 15.1222 133.71 14.7117 134.371 14.4347C135.032 14.1577 135.743 14.0203 136.46 14.0309C137.313 13.9954 138.161 14.1929 138.912 14.6022C139.663 15.0115 140.289 15.6173 140.723 16.3552V14.2825ZM133.62 22.5433C134.408 23.3177 135.467 23.7514 136.57 23.7514C137.673 23.7514 138.732 23.3177 139.519 22.5433C140.291 21.747 140.723 20.6804 140.723 19.57C140.723 18.4596 140.291 17.393 139.519 16.5967C138.935 16.0051 138.187 15.6027 137.372 15.4416C136.557 15.2806 135.713 15.3682 134.949 15.6931C134.184 16.0181 133.534 16.5655 133.083 17.2646C132.631 17.9638 132.399 18.7826 132.416 19.6153C132.409 20.1597 132.512 20.6998 132.719 21.2031C132.926 21.7064 133.233 22.1623 133.62 22.5433Z" fill="white"/>
<path d="M154.116 10.0557H155.471V24.8467H154.076V22.784C153.644 23.5219 153.02 24.128 152.271 24.5374C151.521 24.9468 150.675 25.1442 149.822 25.1084C149.106 25.119 148.395 24.9816 147.734 24.7046C147.073 24.4276 146.476 24.017 145.98 23.4984C145.47 22.9819 145.07 22.3668 144.805 21.6905C144.539 21.0142 144.413 20.2908 144.435 19.5642C144.419 18.8355 144.553 18.1113 144.827 17.4364C145.102 16.7615 145.511 16.1501 146.03 15.6401C146.525 15.12 147.122 14.7085 147.783 14.4314C148.445 14.1543 149.156 14.0177 149.873 14.0301C150.725 13.9943 151.571 14.1917 152.321 14.6011C153.07 15.0105 153.694 15.6166 154.126 16.3545L154.116 10.0557ZM147.013 22.5426C147.801 23.3169 148.86 23.7506 149.963 23.7506C151.066 23.7506 152.125 23.3169 152.912 22.5426C153.684 21.7463 154.116 20.6796 154.116 19.5692C154.116 18.4589 153.684 17.3922 152.912 16.5959C152.125 15.8216 151.066 15.3879 149.963 15.3879C148.86 15.3879 147.801 15.8216 147.013 16.5959C146.246 17.3947 145.818 18.4604 145.818 19.5692C145.818 20.6781 146.246 21.7438 147.013 22.5426Z" fill="white"/>
<path d="M166.044 14.2822H167.509L162.994 25.8233C162.648 26.7868 162.048 27.6386 161.259 28.2885C160.553 28.8683 159.65 29.1497 158.74 29.0733V27.7653C160.004 27.9061 160.968 27.1716 161.63 25.5717L161.901 24.9177L157.185 14.2822H158.66L162.613 23.1368L166.044 14.2822Z" fill="white"/>
</svg>
