<svg width="157" height="27" viewBox="0 0 157 27" fill="none" xmlns="http://www.w3.org/2000/svg">
<path d="M0.197351 23.7925L15.7595 0.951411C15.889 0.768456 16.0603 0.61926 16.2591 0.516302C16.4578 0.413345 16.6783 0.359619 16.902 0.359619C17.1257 0.359619 17.3462 0.413345 17.5449 0.516302C17.7437 0.61926 17.915 0.768456 18.0445 0.951411L33.6066 23.7925C33.7314 23.9953 33.7994 24.228 33.8038 24.4662C33.8081 24.7045 33.7485 24.9395 33.6313 25.1467C33.514 25.354 33.3434 25.5258 33.1373 25.6443C32.9311 25.7627 32.697 25.8234 32.4595 25.8201H1.34453C1.10697 25.8234 0.872878 25.7627 0.666733 25.6443C0.460588 25.5258 0.289966 25.354 0.172713 25.1467C0.0554611 24.9395 -0.00411351 24.7045 0.000220699 24.4662C0.00455491 24.228 0.0726387 23.9953 0.197351 23.7925V23.7925Z" fill="#FFB800"/>
<path d="M0.498314 24.1226L8.22768 16.1631C9.35608 15.0016 10.705 14.0785 12.1948 13.4482C13.6846 12.8179 15.2851 12.4932 16.9021 12.4932C18.519 12.4932 20.1196 12.8179 21.6094 13.4482C23.0992 14.0785 24.448 15.0016 25.5764 16.1631L33.3152 24.132C33.4437 24.2797 33.527 24.4615 33.555 24.6555C33.5831 24.8495 33.5547 25.0475 33.4732 25.2258C33.3918 25.404 33.2609 25.5549 33.0961 25.6603C32.9313 25.7657 32.7396 25.8212 32.5441 25.8201H1.26937C1.07213 25.8228 0.87835 25.7679 0.71171 25.6621C0.54507 25.5562 0.412781 25.4039 0.331003 25.2239C0.249225 25.0439 0.221498 24.8438 0.25121 24.6483C0.280922 24.4527 0.366787 24.27 0.498314 24.1226V24.1226Z" fill="#FF7A00"/>
<path d="M0.912832 24.6693L3.226 23.3962C7.40884 21.0727 12.1119 19.8538 16.8934 19.8538C21.675 19.8538 26.378 21.0727 30.5609 23.3962L32.8834 24.6976C32.9884 24.7659 33.07 24.8648 33.1171 24.981C33.1643 25.0973 33.1747 25.2252 33.147 25.3476C33.1193 25.47 33.0548 25.5809 32.9623 25.6653C32.8698 25.7498 32.7536 25.8037 32.6296 25.8198H1.22313C1.0931 25.8101 0.969283 25.7601 0.868765 25.6768C0.768246 25.5935 0.695979 25.481 0.661931 25.3547C0.627883 25.2285 0.633732 25.0948 0.678671 24.972C0.723611 24.8492 0.805426 24.7435 0.912832 24.6693V24.6693Z" fill="#F16000"/>
<path d="M46.8047 22.9954C45.8487 23.025 44.897 22.8551 44.0099 22.4963C43.1229 22.1375 42.3199 21.5977 41.6518 20.9112C40.9806 20.2371 40.4534 19.4328 40.1026 18.5475C39.7517 17.6622 39.5846 16.7144 39.6114 15.7621C39.5894 14.8091 39.7606 13.8615 40.1145 12.9768C40.4683 12.0921 40.9975 11.2886 41.6701 10.615C42.3426 9.94142 43.1444 9.41171 44.027 9.05796C44.9096 8.70422 45.8546 8.5338 46.8047 8.55702C48.0142 8.54611 49.206 8.84819 50.2651 9.43407C51.2938 9.99208 52.1519 10.8201 52.7475 11.8295L50.3967 13.1875C50.0554 12.5733 49.5466 12.0695 48.9299 11.7352C48.0666 11.2862 47.0858 11.1168 46.1225 11.2503C45.1592 11.3837 44.2609 11.8134 43.5513 12.4802C43.1314 12.9142 42.8028 13.4283 42.5847 13.992C42.3666 14.5557 42.2637 15.1577 42.2818 15.7621C42.2594 16.3623 42.3568 16.961 42.5684 17.523C42.7799 18.085 43.1013 18.5989 43.5137 19.0345C43.9391 19.4597 44.448 19.7916 45.008 20.0091C45.5681 20.2267 46.1671 20.3251 46.7671 20.2982C47.514 20.3102 48.2517 20.1317 48.911 19.7795C49.524 19.4509 50.0275 18.9492 50.3591 18.3366L52.7099 19.7041C52.1174 20.7102 51.2623 21.5352 50.2369 22.09C49.1903 22.6847 48.0076 22.9966 46.8047 22.9954V22.9954Z" fill="#1E1E1E"/>
<path d="M61.8692 12.8101H64.4174V22.7123H61.8692V21.5523C61.485 22.0306 60.9932 22.4108 60.4342 22.6616C59.8752 22.9124 59.2649 23.0268 58.6533 22.9952C58.0137 22.9994 57.3805 22.8661 56.7966 22.6042C56.2127 22.3423 55.6915 21.9579 55.2682 21.4769C54.7997 20.9815 54.4332 20.3983 54.1896 19.7608C53.9459 19.1232 53.83 18.4437 53.8483 17.7612C53.8138 16.386 54.3244 15.0532 55.2682 14.055C55.6915 13.574 56.2127 13.1896 56.7966 12.9277C57.3805 12.6657 58.0137 12.5324 58.6533 12.5366C59.2649 12.5051 59.8752 12.6194 60.4342 12.8702C60.9932 13.121 61.485 13.5012 61.8692 13.9795V12.8101ZM57.1676 19.7794C57.6936 20.2893 58.3966 20.5743 59.1282 20.5743C59.8597 20.5743 60.5627 20.2893 61.0887 19.7794C61.3475 19.513 61.5501 19.1969 61.6842 18.8501C61.8183 18.5033 61.8812 18.133 61.8692 17.7612C61.8792 17.3925 61.8153 17.0256 61.6812 16.6821C61.5472 16.3387 61.3457 16.0258 61.0887 15.7619C60.5627 15.252 59.8597 14.9669 59.1282 14.9669C58.3966 14.9669 57.6936 15.252 57.1676 15.7619C56.6556 16.2996 56.3753 17.0178 56.3872 17.7612C56.3703 18.5111 56.651 19.237 57.1676 19.7794V19.7794Z" fill="#1E1E1E"/>
<path d="M71.432 22.9953C70.7347 23.0213 70.0398 22.9005 69.3919 22.6406C68.7441 22.3807 68.1578 21.9875 67.6707 21.4864C67.1815 21.0005 66.7964 20.4194 66.5393 19.7788C66.2822 19.1382 66.1585 18.4516 66.1756 17.7613C66.1592 17.0724 66.2833 16.3875 66.5404 15.7485C66.7975 15.1095 67.1822 14.53 67.6707 14.0456C68.1578 13.5445 68.7441 13.1513 69.3919 12.8914C70.0398 12.6315 70.7347 12.5106 71.432 12.5367C72.3563 12.5269 73.2661 12.768 74.0649 13.2345C74.832 13.6768 75.4556 14.3317 75.8609 15.1207L73.6699 16.4032C73.46 15.9999 73.1318 15.6707 72.7296 15.4602C72.2174 15.1686 71.625 15.0506 71.0406 15.1236C70.4561 15.1967 69.9107 15.4569 69.4855 15.8657C69.2339 16.1204 69.0373 16.4243 68.9079 16.7586C68.7785 17.0928 68.719 17.4501 68.7333 17.8084C68.7203 18.1651 68.7804 18.5207 68.9098 18.8532C69.0392 19.1857 69.2351 19.4881 69.4855 19.7417C69.7398 19.9952 70.0447 20.1918 70.3802 20.3186C70.7157 20.4454 71.0742 20.4995 71.432 20.4773C71.9127 20.4884 72.3874 20.3678 72.8048 20.1284C73.2108 19.923 73.5404 19.5924 73.7452 19.1853L75.9549 20.4584C75.5259 21.2425 74.892 21.8946 74.1213 22.3446C73.3029 22.8088 72.3714 23.0342 71.432 22.9953V22.9953Z" fill="#1E1E1E"/>
<path d="M82.7152 12.5368C83.2117 12.5235 83.7054 12.6139 84.1651 12.8023C84.6248 12.9906 85.0405 13.2727 85.3857 13.6307C85.7584 14.0338 86.0469 14.5077 86.2342 15.0243C86.4216 15.541 86.5039 16.09 86.4765 16.6391V22.7124H83.9376V16.9503C83.9563 16.6754 83.9183 16.3995 83.8261 16.14C83.7339 15.8804 83.5894 15.6426 83.4017 15.4414C83.2122 15.2627 82.9889 15.1239 82.745 15.0332C82.5012 14.9425 82.2416 14.9017 81.9818 14.9133C81.6905 14.9002 81.3997 14.948 81.1278 15.0535C80.8559 15.159 80.6087 15.32 80.4021 15.5263C79.9731 16.0384 79.7605 16.6982 79.8097 17.3653V22.7124H77.2332V8.84937H79.7815V13.9231C80.1089 13.4569 80.5514 13.0841 81.0657 12.841C81.58 12.598 82.1484 12.4932 82.7152 12.5368V12.5368Z" fill="#1E1E1E"/>
<path d="M90.7736 18.8175C90.9295 19.4253 91.3036 19.9539 91.8242 20.302C92.3448 20.6501 92.9753 20.7931 93.5946 20.7036C94.0167 20.7302 94.4389 20.654 94.8253 20.4816C95.2117 20.3092 95.5508 20.0456 95.8137 19.7134L97.8636 20.9017C97.3875 21.5961 96.7412 22.156 95.987 22.5276C95.2328 22.8992 94.396 23.07 93.557 23.0236C92.8353 23.0558 92.1146 22.9402 91.4389 22.6841C90.7632 22.4279 90.1465 22.0364 89.6265 21.5335C89.1347 21.0406 88.7497 20.4511 88.4957 19.802C88.2417 19.1528 88.124 18.4581 88.1502 17.7613C88.1244 17.0661 88.2404 16.373 88.491 15.7244C88.7416 15.0757 89.1216 14.4852 89.6077 13.989C90.0969 13.4915 90.6838 13.1013 91.3313 12.8432C91.9788 12.585 92.6726 12.4646 93.3689 12.4895C94.0388 12.4704 94.705 12.5952 95.3229 12.8554C95.9408 13.1157 96.4961 13.5054 96.9515 13.9984C97.895 15.0007 98.4053 16.3362 98.3714 17.7141C98.3677 18.0686 98.3331 18.422 98.2679 18.7704L90.7736 18.8175ZM90.7736 16.8371H95.8137C95.7015 16.2331 95.3656 15.694 94.8734 15.3282C94.4232 14.9997 93.8785 14.8275 93.3219 14.8378C92.7151 14.8112 92.1176 14.9943 91.6293 15.3565C91.1677 15.7297 90.8516 16.2538 90.736 16.8371H90.7736Z" fill="#1E1E1E"/>
<path d="M109.043 22.7124L105.799 17.1672H101.897V22.7124H100.514V8.84937H106.043C107.143 8.85186 108.196 9.29083 108.973 10.0702C109.75 10.8496 110.188 11.906 110.19 13.0083C110.201 13.9167 109.903 14.8017 109.344 15.5168C108.814 16.2322 108.064 16.7526 107.209 16.9975L110.585 22.7124H109.043ZM101.897 10.1602V15.8186H106.043C106.41 15.8223 106.773 15.7496 107.109 15.6051C107.446 15.4606 107.749 15.2475 107.999 14.9793C108.26 14.713 108.466 14.3976 108.605 14.0513C108.744 13.7049 108.813 13.3344 108.808 12.9611C108.813 12.5879 108.744 12.2174 108.605 11.871C108.466 11.5246 108.26 11.2092 107.999 10.943C107.749 10.676 107.445 10.4644 107.109 10.3215C106.772 10.1786 106.409 10.1076 106.043 10.1131L101.897 10.1602Z" fill="#1E1E1E"/>
<path d="M116.425 12.5744C117.094 12.5505 117.76 12.678 118.374 12.9474C118.988 13.2167 119.533 13.621 119.97 14.1304C120.863 15.1436 121.346 16.4558 121.324 17.8084C121.334 18.0126 121.334 18.2172 121.324 18.4214H112.616C112.71 19.3533 113.166 20.2108 113.886 20.8073C114.643 21.4039 115.585 21.7144 116.547 21.6844C117.225 21.7039 117.896 21.5445 118.493 21.2223C119.01 20.9411 119.437 20.5194 119.725 20.0057L120.872 20.6753C120.439 21.3855 119.826 21.9679 119.095 22.3634C118.304 22.7798 117.421 22.9906 116.528 22.9764C115.834 23.0005 115.143 22.8824 114.496 22.6295C113.85 22.3765 113.261 21.994 112.767 21.5052C112.281 21.0183 111.9 20.4363 111.647 19.7955C111.395 19.1547 111.277 18.4687 111.3 17.7801C111.281 17.0987 111.399 16.4206 111.646 15.7856C111.893 15.1507 112.265 14.5718 112.739 14.0833C113.216 13.5907 113.79 13.2025 114.425 12.9428C115.059 12.6832 115.74 12.5577 116.425 12.5744ZM116.425 13.8475C115.498 13.821 114.596 14.1463 113.899 14.7583C113.201 15.3704 112.76 16.2239 112.663 17.1482H120.026C119.949 16.2129 119.518 15.3424 118.822 14.7151C118.158 14.1407 117.301 13.8407 116.425 13.8758V13.8475Z" fill="#1E1E1E"/>
<path d="M131.894 12.8101H133.191V22.7123H131.894V20.779C131.486 21.4707 130.899 22.0385 130.196 22.4221C129.492 22.8057 128.698 22.9908 127.897 22.9575C127.226 22.9653 126.561 22.8354 125.941 22.576C125.322 22.3165 124.762 21.9329 124.296 21.4486C123.811 20.968 123.429 20.393 123.173 19.7589C122.918 19.1248 122.794 18.445 122.81 17.7612C122.794 17.0789 122.917 16.4004 123.173 15.7677C123.428 15.1351 123.811 14.5618 124.296 14.0833C124.761 13.5972 125.32 13.2124 125.94 12.9528C126.56 12.6932 127.226 12.5644 127.897 12.5744C128.698 12.5411 129.492 12.7262 130.196 13.1098C130.899 13.4934 131.486 14.0612 131.894 14.7528V12.8101ZM125.236 20.5527C125.974 21.2784 126.967 21.685 128.001 21.685C129.034 21.685 130.027 21.2784 130.765 20.5527C131.488 19.8064 131.893 18.8067 131.893 17.7659C131.893 16.7252 131.488 15.7255 130.765 14.9792C130.217 14.4246 129.516 14.0475 128.753 13.8966C127.989 13.7456 127.198 13.8277 126.481 14.1323C125.764 14.4369 125.155 14.9499 124.732 15.6052C124.309 16.2605 124.092 17.0279 124.108 17.8084C124.101 18.3186 124.198 18.8248 124.392 19.2965C124.585 19.7682 124.873 20.1956 125.236 20.5527V20.5527Z" fill="#1E1E1E"/>
<path d="M144.447 8.84937H145.717V22.7124H144.41V20.7792C144.004 21.4707 143.419 22.0388 142.717 22.4225C142.015 22.8062 141.222 22.9912 140.423 22.9576C139.751 22.9676 139.085 22.8388 138.465 22.5792C137.846 22.3196 137.286 21.9348 136.821 21.4487C136.343 20.9646 135.969 20.3881 135.72 19.7542C135.471 19.1203 135.353 18.4423 135.373 17.7613C135.359 17.0784 135.484 16.3996 135.741 15.767C135.998 15.1344 136.382 14.5614 136.868 14.0834C137.332 13.596 137.892 13.2102 138.511 12.9505C139.131 12.6908 139.798 12.5628 140.47 12.5745C141.269 12.5409 142.062 12.7259 142.764 13.1096C143.466 13.4934 144.052 14.0614 144.457 14.753L144.447 8.84937ZM137.79 20.5528C138.528 21.2786 139.521 21.6851 140.554 21.6851C141.588 21.6851 142.581 21.2786 143.319 20.5528C144.042 19.8065 144.447 18.8068 144.447 17.7661C144.447 16.7253 144.042 15.7256 143.319 14.9793C142.581 14.2536 141.588 13.8471 140.554 13.8471C139.521 13.8471 138.528 14.2536 137.79 14.9793C137.071 15.7279 136.669 16.7268 136.669 17.7661C136.669 18.8054 137.071 19.8042 137.79 20.5528Z" fill="#1E1E1E"/>
<path d="M155.628 12.8101H157.001L152.769 23.627C152.444 24.5301 151.882 25.3284 151.143 25.9375C150.481 26.481 149.634 26.7448 148.782 26.6731V25.4472C149.967 25.5792 150.87 24.8907 151.49 23.3913L151.744 22.7783L147.325 12.8101H148.707L152.412 21.109L155.628 12.8101Z" fill="#1E1E1E"/>
</svg>
